<svg width="100" height="101" viewBox="0 0 100 101" fill="none" xmlns="http://www.w3.org/2000/svg">
<path d="M11.1252 87.4518H44.6542C45.7362 89.3668 47.7672 90.5708 50.0002 90.5708C52.2332 90.5708 54.2642 89.3668 55.3462 87.4518H89.1252C89.6772 87.4518 90.1252 87.0048 90.1252 86.4518V17.2018C90.1252 16.6488 89.6772 16.2018 89.1252 16.2018H85.3112V15.5488C85.3112 15.1638 85.0902 14.8138 84.7442 14.6478C65.4982 5.41584 53.1592 13.9778 50.1342 16.5058C48.8752 15.4298 45.9642 13.2658 41.5172 11.8268C36.0322 10.0528 27.0682 9.10084 15.5072 14.6468C15.1602 14.8128 14.9402 15.1638 14.9402 15.5478V16.2008H11.1262C10.5742 16.2008 10.1262 16.6478 10.1262 17.2008V86.4508C10.1252 87.0038 10.5732 87.4518 11.1252 87.4518ZM83.3112 16.1818V78.7598C66.4292 71.8578 55.1982 77.6768 51.1282 80.5188C51.1592 61.5298 51.2122 23.4308 51.1302 18.2728C53.0602 16.4968 64.3132 7.35484 83.3112 16.1818ZM49.1382 18.2898C49.2042 22.3698 49.1632 59.1408 49.1282 80.4788C47.6112 79.3838 45.1002 77.8718 41.6022 76.7808C39.2202 76.0378 36.1702 75.4418 32.5142 75.4418C28.1492 75.4418 22.9212 76.2918 16.9392 78.7558V17.2038C16.9392 17.2028 16.9392 17.2018 16.9392 17.2018V17.1998V16.1828C35.9952 7.32584 47.2602 16.5528 49.1382 18.2898ZM12.1252 18.2018H14.9392V80.2728C14.9392 80.6118 15.1102 80.9268 15.3952 81.1118C15.6802 81.2968 16.0382 81.3258 16.3472 81.1858C27.4012 76.2558 35.8002 77.0878 40.8992 78.6568C46.4232 80.3538 49.3902 83.2558 49.4182 83.2838C49.4282 83.2938 49.4412 83.2968 49.4512 83.3058C49.5372 83.3858 49.6332 83.4538 49.7432 83.4998C49.8222 83.5318 49.9062 83.5388 49.9902 83.5498C50.0352 83.5558 50.0762 83.5768 50.1232 83.5768C50.1242 83.5768 50.1242 83.5768 50.1252 83.5768C50.1622 83.5768 50.1932 83.5598 50.2292 83.5558C50.3212 83.5458 50.4142 83.5358 50.5012 83.5008C50.5922 83.4638 50.6682 83.4038 50.7442 83.3428C50.7692 83.3228 50.8002 83.3138 50.8232 83.2908C50.8232 83.2908 50.8292 83.2848 50.8302 83.2838C50.8302 83.2838 50.8312 83.2838 50.8312 83.2828C50.9332 83.1858 53.9202 80.3668 59.3942 78.7038C64.5082 77.1518 72.9132 76.3188 83.9062 81.1858C84.2152 81.3238 84.5732 81.2948 84.8562 81.1098C85.1402 80.9248 85.3112 80.6098 85.3112 80.2718V18.2018H88.1252V85.4518H54.7272C54.3272 85.4518 53.9652 85.6898 53.8082 86.0578C53.1532 87.5838 51.6592 88.5708 50.0002 88.5708C48.3412 88.5708 46.8472 87.5848 46.1922 86.0578C46.0352 85.6898 45.6732 85.4518 45.2732 85.4518H12.1252V18.2018Z" fill="#222222"/>
</svg>
