<svg width="100" height="101" viewBox="0 0 100 101" fill="none" xmlns="http://www.w3.org/2000/svg">
<path d="M61.1481 36.0698L63.4293 36.084L62.088 45.0181C62.024 45.4429 62.2384 45.8608 62.6207 46.0566C62.7652 46.1304 62.9215 46.1665 63.0763 46.1665C63.3317 46.1665 63.5836 46.0688 63.775 45.8823L77.402 32.5898C77.693 32.3062 77.7833 31.875 77.6305 31.4985C77.4777 31.1221 77.1124 30.875 76.7062 30.874L71.8229 30.8608L75.1671 22.9893C75.2985 22.6802 75.2657 22.3262 75.0807 22.0464C74.8956 21.7666 74.5821 21.5981 74.2467 21.5981H62.5812C62.0729 21.5981 61.6456 21.9795 61.5875 22.4844L60.1608 34.9561C60.1285 35.2383 60.2179 35.521 60.4064 35.7334C60.5944 35.9458 60.8644 36.0679 61.1481 36.0698ZM63.4733 23.5981H72.7355L69.3927 31.4658C69.2618 31.7744 69.2941 32.1279 69.4786 32.4077C69.6627 32.6875 69.9752 32.856 70.3107 32.8569L74.253 32.8677L64.5074 42.374L65.5782 35.2393C65.6217 34.9526 65.5377 34.6611 65.3492 34.4404C65.1608 34.2202 64.8859 34.0928 64.5958 34.0908L62.2745 34.0767L63.4733 23.5981Z" fill="#222222"/>
<path d="M10 61.957C10 77.6958 22.9312 90.5 38.8252 90.5C44.7539 90.5 50.4189 88.7431 55.2559 85.4126C57.562 86.8672 65.897 91.3623 72.0029 84.7944C72.228 84.5522 72.3188 84.2143 72.2456 83.8916C72.1724 83.5693 71.9438 83.3037 71.6362 83.1831C71.5498 83.1489 63.0967 79.6889 64.4292 75.2241C65.9761 72.0532 67.1797 68.0049 67.4966 64.9175C67.5264 64.6998 68.1677 59.8211 67.0682 54.9666C73.1669 55.1083 79.129 52.7821 83.563 48.3144C87.7666 44.0776 90.0522 38.4736 89.999 32.5347C89.9458 26.5937 87.5591 21.0298 83.2783 16.8677C74.4482 8.28318 60.21 8.40867 51.5381 17.1499C46.8643 21.8605 44.7346 28.0446 45.1176 34.1109C43.0608 33.6572 40.9509 33.4136 38.8252 33.4136C22.9312 33.4136 10 46.2182 10 61.957ZM52.958 18.5586C60.8623 10.5932 73.8379 10.479 81.8838 18.3013C85.7788 22.0884 87.9507 27.1494 87.9995 32.5522C88.0479 37.9536 85.9678 43.0513 82.1431 46.9053C76.6851 52.4062 68.6831 54.353 61.2627 51.9883C60.8984 51.8721 60.4951 51.9751 60.2314 52.2549C60.1997 52.2886 57.3643 55.2051 52.2471 53.6416C53.1094 52.9765 54.0044 52.0229 54.2969 50.7973C54.4941 49.9687 54.48 48.6792 53.291 47.2417C53.2676 47.2129 53.2422 47.186 53.2158 47.1601C53.0737 47.0224 52.9341 46.8823 52.7969 46.7412C45.0854 38.8008 45.1562 26.4214 52.958 18.5586ZM51.3618 48.1343C51.4995 48.2764 51.6401 48.4175 51.7827 48.5566C52.2974 49.1929 52.4834 49.7734 52.3521 50.3301C52.0552 51.5864 50.2632 52.624 49.5996 52.917C49.2407 53.0737 49.0063 53.4258 49 53.8179C48.9941 54.2095 49.2173 54.5688 49.5713 54.7368C51.7119 55.7529 53.5967 56.1201 55.2031 56.1201C58.2729 56.1196 60.3271 54.7793 61.2065 54.062C62.4515 54.425 63.7098 54.6655 64.9689 54.8124C66.186 59.4852 65.5218 64.5971 65.5112 64.6802C65.21 67.6069 64.0669 71.4272 62.5996 74.4131C62.5776 74.457 62.5596 74.5029 62.5444 74.5498C60.9614 79.5068 66.7153 83.0303 69.4961 84.4082C63.6982 89.0854 56.1699 83.6445 55.8335 83.396C55.4829 83.1372 55.0049 83.1343 54.6523 83.3901C50.0371 86.7329 44.564 88.5 38.8252 88.5C24.0337 88.5 12 76.5928 12 61.957C12 47.3208 24.0337 35.4136 38.8252 35.4136C41.0355 35.4136 43.2291 35.685 45.3522 36.2101C46.0498 40.5386 48.0387 44.7124 51.3618 48.1343Z" fill="#222222"/>
<path d="M27.8848 58.2075C27.8848 58.7598 28.3325 59.2075 28.8848 59.2075H46.8848C47.437 59.2075 47.8848 58.7598 47.8848 58.2075C47.8848 57.6553 47.437 57.2075 46.8848 57.2075H28.8848C28.3325 57.2075 27.8848 57.6553 27.8848 58.2075Z" fill="#222222"/>
<path d="M46.8848 66.772H28.8848C28.3325 66.772 27.8848 67.2197 27.8848 67.772C27.8848 68.3242 28.3325 68.772 28.8848 68.772H46.8848C47.437 68.772 47.8848 68.3242 47.8848 67.772C47.8848 67.2197 47.437 66.772 46.8848 66.772Z" fill="#222222"/>
</svg>
