<svg width="24" height="24" viewBox="0 0 24 24" fill="none" xmlns="http://www.w3.org/2000/svg">
<path d="M12 2C9.28414 2 8.94359 2.01152 7.87699 2.0602C6.81262 2.10875 6.08566 2.27777 5.44957 2.525C4.79199 2.78055 4.2343 3.1225 3.6784 3.67844C3.12246 4.23434 2.78051 4.79203 2.52496 5.44961C2.27773 6.08566 2.10871 6.81262 2.06016 7.87699C2.01148 8.94359 2 9.28414 2 12C2 14.7158 2.01148 15.0563 2.06016 16.1229C2.10871 17.1873 2.27773 17.9143 2.52496 18.5503C2.78051 19.2079 3.12246 19.7656 3.6784 20.3216C4.2343 20.8775 4.79199 21.2194 5.44957 21.475C6.08566 21.7221 6.81262 21.8912 7.87699 21.9398C8.94359 21.9884 9.28414 21.9999 12 21.9999C14.7158 21.9999 15.0563 21.9884 16.1229 21.9398C17.1873 21.8912 17.9143 21.7221 18.5503 21.475C19.2079 21.2194 19.7656 20.8775 20.3216 20.3216C20.8775 19.7656 21.2194 19.2079 21.475 18.5503C21.7221 17.9143 21.8912 17.1873 21.9398 16.1229C21.9884 15.0563 21.9999 14.7158 21.9999 12C21.9999 9.28414 21.9884 8.94359 21.9398 7.87699C21.8912 6.81262 21.7221 6.08566 21.475 5.44961C21.2194 4.79203 20.8775 4.23434 20.3216 3.67844C19.7656 3.1225 19.2079 2.78055 18.5503 2.525C17.9143 2.27777 17.1873 2.10875 16.1229 2.0602C15.0563 2.01152 14.7158 2 12 2V2ZM12 3.80184C14.6701 3.80184 14.9864 3.81199 16.0408 3.86012C17.0158 3.90461 17.5453 4.0675 17.8977 4.20441C18.3644 4.38582 18.6975 4.60254 19.0475 4.95246C19.3974 5.30238 19.6141 5.63555 19.7955 6.10227C19.9325 6.45465 20.0954 6.98414 20.1398 7.9591C20.1879 9.01359 20.1981 9.32988 20.1981 12C20.1981 14.6701 20.1879 14.9864 20.1398 16.0408C20.0954 17.0158 19.9325 17.5453 19.7955 17.8977C19.6141 18.3644 19.3974 18.6975 19.0475 19.0475C18.6975 19.3974 18.3644 19.6141 17.8977 19.7955C17.5453 19.9325 17.0158 20.0954 16.0408 20.1398C14.9865 20.1879 14.6703 20.1981 12 20.1981C9.32965 20.1981 9.01348 20.1879 7.9591 20.1398C6.98414 20.0954 6.45465 19.9325 6.10227 19.7955C5.63551 19.6141 5.30238 19.3974 4.95242 19.0475C4.6025 18.6975 4.38578 18.3644 4.20441 17.8977C4.06746 17.5453 3.90457 17.0158 3.86008 16.0408C3.81195 14.9864 3.8018 14.6701 3.8018 12C3.8018 9.32988 3.81195 9.01359 3.86008 7.9591C3.90457 6.98414 4.06746 6.45465 4.20441 6.10227C4.38578 5.63555 4.6025 5.30238 4.95242 4.95246C5.30238 4.60254 5.63551 4.38582 6.10227 4.20441C6.45465 4.0675 6.98414 3.90461 7.9591 3.86012C9.01359 3.81199 9.32988 3.80184 12 3.80184V3.80184Z" fill="#498ea9"/>
<path d="M11.9984 15.3317C10.1575 15.3317 8.66508 13.8393 8.66508 11.9984C8.66508 10.1575 10.1575 8.66508 11.9984 8.66508C13.8393 8.66508 15.3317 10.1575 15.3317 11.9984C15.3317 13.8393 13.8393 15.3317 11.9984 15.3317ZM11.9984 6.86328C9.16234 6.86328 6.86328 9.16234 6.86328 11.9984C6.86328 14.8345 9.16234 17.1335 11.9984 17.1335C14.8345 17.1335 17.1335 14.8345 17.1335 11.9984C17.1335 9.16234 14.8345 6.86328 11.9984 6.86328V6.86328Z" fill="#498ea9"/>
<path d="M18.5357 6.66676C18.5357 7.32953 17.9985 7.86676 17.3357 7.86676C16.673 7.86676 16.1357 7.32953 16.1357 6.66676C16.1357 6.00402 16.673 5.4668 17.3357 5.4668C17.9985 5.4668 18.5357 6.00402 18.5357 6.66676V6.66676Z" fill="#498ea9"/>
</svg>
