<svg width="24" height="24" viewBox="0 0 24 24" fill="none" xmlns="http://www.w3.org/2000/svg">
<path fill-rule="evenodd" clip-rule="evenodd" d="M22 4.5C22 3.1202 20.8798 2 19.5 2H4.5C3.1202 2 2 3.1202 2 4.5V19.5C2 20.8798 3.1202 22 4.5 22H19.5C20.8798 22 22 20.8798 22 19.5V4.5Z" fill="#498ea9"/>
<path d="M7.73281 8.98242H4.38281V19.0591H7.73281V8.98242Z" fill="white"/>
<path d="M6.0825 4.11914C4.93637 4.11914 4.1875 4.87266 4.1875 5.86027C4.1875 6.82715 4.91359 7.60145 6.03816 7.60145H6.0598C7.22789 7.60145 7.95496 6.82715 7.95496 5.86027C7.93328 4.87266 7.22797 4.11914 6.0825 4.11914V4.11914Z" fill="white"/>
<path d="M15.9556 8.73828C14.1787 8.73828 13.3827 9.71551 12.937 10.4019V8.97523H9.58789C9.6323 9.92043 9.58789 19.0518 9.58789 19.0518H12.937V13.4243C12.937 13.1231 12.9586 12.822 13.0474 12.6067C13.2891 12.0052 13.8406 11.382 14.7659 11.382C15.9773 11.382 16.4626 12.3064 16.4626 13.6604V19.0518H19.8119V13.2733C19.8119 10.1781 18.1593 8.73828 15.9556 8.73828V8.73828Z" fill="white"/>
</svg>
