<svg width="24" height="24" viewBox="0 0 24 24" fill="none" xmlns="http://www.w3.org/2000/svg">
<path d="M8.28961 20.126C15.8368 20.126 19.9648 13.8732 19.9648 8.45082C19.9648 8.27324 19.9648 8.09644 19.9528 7.92043C20.7559 7.33953 21.4491 6.62035 22 5.79645C21.2511 6.12828 20.4566 6.34586 19.6432 6.44203C20.4996 5.92937 21.141 5.12242 21.4472 4.17242C20.6418 4.65035 19.7605 4.98723 18.8416 5.16844C18.0657 4.3434 16.9821 3.875 15.8497 3.875C13.5965 3.875 11.7425 5.72906 11.7425 7.98219C11.7425 8.29476 11.7782 8.60637 11.8488 8.91082C8.55121 8.74555 5.47457 7.18578 3.39199 4.62363C2.30902 6.48793 2.86937 8.90394 4.66238 10.1012C4.00945 10.0819 3.37055 9.9057 2.8 9.58762V9.63961C2.80055 11.5855 4.18465 13.2768 6.09199 13.662C5.48793 13.8268 4.85398 13.8508 4.23922 13.7324C4.77543 15.3998 6.32168 16.5491 8.07281 16.582C6.62008 17.7237 4.82449 18.3439 2.9768 18.342C2.65031 18.3414 2.32414 18.3216 2 18.2828C3.87633 19.4869 6.06016 20.1258 8.28961 20.1228" fill="#4353FF"/>
</svg>
